<?xml version="1.0" standalone="no"?>
<svg xmlns:xlink="http://www.w3.org/1999/xlink" id="wave" style="transform:rotate(0deg); transition: 0.3s" viewBox="0 0 1440 400" version="1.1" xmlns="http://www.w3.org/2000/svg"><defs><linearGradient id="sw-gradient-0" x1="0" x2="0" y1="1" y2="0"><stop stop-color="rgba(176, 190, 251, 1)" offset="0%"/><stop stop-color="rgba(253, 228, 234, 1)" offset="100%"/></linearGradient></defs><path style="transform:translate(0, 0px); opacity:1" fill="url(#sw-gradient-0)" d="M0,200L21.8,220C43.6,240,87,280,131,260C174.5,240,218,160,262,160C305.5,160,349,240,393,280C436.4,320,480,320,524,313.3C567.3,307,611,293,655,280C698.2,267,742,253,785,266.7C829.1,280,873,320,916,293.3C960,267,1004,173,1047,126.7C1090.9,80,1135,80,1178,66.7C1221.8,53,1265,27,1309,60C1352.7,93,1396,187,1440,233.3C1483.6,280,1527,280,1571,260C1614.5,240,1658,200,1702,186.7C1745.5,173,1789,187,1833,193.3C1876.4,200,1920,200,1964,206.7C2007.3,213,2051,227,2095,206.7C2138.2,187,2182,133,2225,106.7C2269.1,80,2313,80,2356,126.7C2400,173,2444,267,2487,286.7C2530.9,307,2575,253,2618,200C2661.8,147,2705,93,2749,93.3C2792.7,93,2836,147,2880,180C2923.6,213,2967,227,3011,206.7C3054.5,187,3098,133,3120,106.7L3141.8,80L3141.8,400L3120,400C3098.2,400,3055,400,3011,400C2967.3,400,2924,400,2880,400C2836.4,400,2793,400,2749,400C2705.5,400,2662,400,2618,400C2574.5,400,2531,400,2487,400C2443.6,400,2400,400,2356,400C2312.7,400,2269,400,2225,400C2181.8,400,2138,400,2095,400C2050.9,400,2007,400,1964,400C1920,400,1876,400,1833,400C1789.1,400,1745,400,1702,400C1658.2,400,1615,400,1571,400C1527.3,400,1484,400,1440,400C1396.4,400,1353,400,1309,400C1265.5,400,1222,400,1178,400C1134.5,400,1091,400,1047,400C1003.6,400,960,400,916,400C872.7,400,829,400,785,400C741.8,400,698,400,655,400C610.9,400,567,400,524,400C480,400,436,400,393,400C349.1,400,305,400,262,400C218.2,400,175,400,131,400C87.3,400,44,400,22,400L0,400Z"/></svg>